<svg width="128" height="128" xmlns="http://www.w3.org/2000/svg">

 <g>
  <title>background</title>
  <rect fill="none" id="canvas_background" height="402" width="582" y="-1" x="-1"/>
 </g>
 <g>
  <title>Layer 1</title>
  <rect id="svg_1" width="128" height="128" fill-rule="evenodd" fill="none" clip-rule="evenodd"/>
  <path id="Apple" fill-rule="evenodd" fill="#ffffff" d="m118.667,93.913c-2.985,6.653 -4.421,9.626 -8.267,15.519c-5.364,8.226 -12.928,18.469 -22.309,18.545c-8.327,0.09 -10.474,-5.457 -21.778,-5.389c-11.304,0.06 -13.661,5.494 -22.002,5.411c-9.374,-0.083 -16.541,-9.325 -21.905,-17.551c-15.007,-22.985 -16.586,-49.967 -7.332,-64.32c6.583,-10.191 16.967,-16.151 26.723,-16.151c9.928,0 16.174,5.479 24.396,5.479c7.975,0 12.83,-5.494 24.314,-5.494c8.693,0 17.903,4.764 24.456,12.983c-21.486,11.846 -18.007,42.711 3.704,50.968zm-36.868,-73.133c4.175,-5.389 7.339,-13.005 6.195,-20.78c-6.823,0.474 -14.798,4.839 -19.451,10.529c-4.242,5.155 -7.728,12.825 -6.367,20.268c7.459,0.234 15.157,-4.237 19.623,-10.017z" clip-rule="evenodd"/>
 </g>
</svg>