<svg width="128" height="128" xmlns="http://www.w3.org/2000/svg">

 <g>
  <title>background</title>
  <rect fill="none" id="canvas_background" height="402" width="582" y="-1" x="-1"/>
 </g>
 <g>
  <title>Layer 1</title>
  <rect id="svg_1" width="128" height="128" fill="none"/>
  <path id="Android" fill-rule="evenodd" fill="#ffffff" d="m112.368,40.466c-4.222,0 -7.64,3.326 -7.64,7.428l0,31.797c0,4.102 3.418,7.428 7.64,7.428c4.214,0 7.632,-3.326 7.632,-7.428l0,-31.797c0,-4.101 -3.418,-7.428 -7.632,-7.428zm-96.728,0c-4.222,0 -7.64,3.326 -7.64,7.428l0,31.797c0,4.102 3.418,7.428 7.64,7.428c4.214,0 7.632,-3.326 7.632,-7.428l0,-31.797c0,-4.101 -3.418,-7.428 -7.632,-7.428zm13.277,0l-0.549,0l0,54.503c0,4.327 3.611,7.85 8.065,7.85l5.815,0c-0.201,0.655 -0.309,1.34 -0.309,2.062l0,15.692c0,4.102 3.426,7.428 7.64,7.428c4.214,0 7.64,-3.326 7.64,-7.428l0,-15.693c0,-0.722 -0.116,-1.407 -0.309,-2.062l14.182,0c-0.193,0.655 -0.302,1.34 -0.302,2.062l0,15.692c0,4.102 3.418,7.428 7.632,7.428c4.222,0 7.648,-3.326 7.648,-7.428l0,-15.692c0,-0.722 -0.116,-1.407 -0.317,-2.062l5.823,0c4.454,0 8.057,-3.522 8.057,-7.85l0,-54.502l-70.716,0zm52.613,-29.75l1.423,-2.092l1.423,-2.062l3.17,-4.636c0.394,-0.572 0.232,-1.34 -0.356,-1.716c-0.58,-0.384 -1.376,-0.226 -1.755,0.346l-4.841,7.052l-1.453,2.122c-4.601,-1.738 -9.728,-2.709 -15.141,-2.709c-5.405,0 -10.54,0.971 -15.141,2.709l-1.446,-2.122l-1.431,-2.085l-3.402,-4.967c-0.394,-0.572 -1.183,-0.722 -1.771,-0.346c-0.58,0.376 -0.742,1.144 -0.356,1.716l3.17,4.636l1.423,2.062l1.431,2.092c-10.803,4.899 -18.11,14.179 -18.11,24.798l71.264,0c0.001,-10.619 -7.306,-19.898 -18.101,-24.798zm-32.802,14.886c-2.111,0 -3.82,-1.663 -3.82,-3.718c0,-2.055 1.709,-3.71 3.82,-3.71s3.82,1.656 3.82,3.71c0,2.055 -1.709,3.718 -3.82,3.718zm30.544,0c-2.111,0 -3.82,-1.663 -3.82,-3.718c0,-2.055 1.709,-3.71 3.82,-3.71c2.111,0 3.82,1.656 3.82,3.71c0,2.055 -1.709,3.718 -3.82,3.718z" clip-rule="evenodd"/>
 </g>
</svg>